<svg xmlns="http://www.w3.org/2000/svg" width="199.487" height="50.28" viewBox="0 0 199.487 50.28">
    <defs>
        <style>
            .cls-1{fill:#6084af}.cls-2{fill:#1d2b50}.cls-3{fill:#c2c3c5}.cls-5{fill:#999b9c}
        </style>
    </defs>
    <g id="logo-desktop" transform="translate(-26.911 -24)">
        <path id="Path_64" data-name="Path 64" class="cls-1" d="M450.694 69.777c-.108 0-.135.054-.162.216-.054.324-.405 4.54-.459 4.837-.054.324.108.405.324.405s.324-.054.486-.324.27-.459.405-.459a1.334 1.334 0 0 1 .622.324 6.777 6.777 0 0 0 4.432 1.243c3.432 0 5.513-2.594 5.513-5.783a5.1 5.1 0 0 0-1.3-3.729 8.3 8.3 0 0 0-3.755-2.027 9.11 9.11 0 0 1-3.189-1.621 3.231 3.231 0 0 1-.73-2.351 2.761 2.761 0 0 1 2.919-2.621 3.384 3.384 0 0 1 2.7 1.108 7.669 7.669 0 0 1 1.621 2.756.21.21 0 0 0 .243.162h.027l.405-.135a.181.181 0 0 0 .162-.189c0-.27-.405-3.918-.405-4.324 0-.27-.054-.405-.216-.405a.436.436 0 0 0-.351.162l-.324.324a.453.453 0 0 1-.54.081 8.107 8.107 0 0 0-3.3-.595 5.272 5.272 0 0 0-3.7 1.243 4.456 4.456 0 0 0-1.838 3.621 4.94 4.94 0 0 0 1.3 3.729 12.177 12.177 0 0 0 3.81 2.189c2.756 1.027 3.864 1.838 3.864 4.216a3.184 3.184 0 0 1-3.378 3.054 4.037 4.037 0 0 1-3.432-1.865 6.191 6.191 0 0 1-1-2.973c0-.162-.054-.216-.162-.216zm-8.486-2.108c0 2.081-.054 5.837-.081 6.107-.081.757-.3.919-.757.919h-1.62c-.162 0-.216.054-.216.216v.595c0 .135.054.243.216.243.378 0 1.351-.081 3.918-.081 2.3 0 3.54.081 3.864.081.216 0 .216-.108.216-.27v-.595c0-.081 0-.189-.162-.189h-1.405c-.486 0-.7-.432-.73-1.405 0-.432-.054-4.243-.054-5.81v-8.3c0-.568.081-1.027.757-1.027h1.135c.162 0 .216-.108.216-.27v-.54c0-.135-.054-.243-.162-.243-.324 0-1.189.108-5 .081-.622 0-.946.054-1.027.324-.135.513-2.486 5.891-2.946 6.972-.676 1.567-2.513 5.837-2.756 6.3-.784-2.135-4.432-10.783-5.378-13.242a.589.589 0 0 0-.622-.432c-.324 0-1.027.081-2.3.081-2.756 0-3.432-.081-3.7-.081-.162 0-.216.108-.216.162v.7a.185.185 0 0 0 .189.189h1.162c1.135 0 1.27.568 1.27 1.513v4.459c0 .459-.162 6.864-.378 8.7-.135.919-.405 1.838-1.3 1.838h-1.189c-.162 0-.162.108-.162.162v.649c0 .189 0 .243.216.243s1.135-.081 3.378-.081c1.973 0 2.7.081 2.973.081s.27-.108.27-.216v-.649a.185.185 0 0 0-.189-.189h-1.162c-.838 0-1.135-1-1.243-2.189-.162-1.7-.135-6.107-.135-6.432s.027-6.864.135-7.242c.324.324 2.7 6.161 3.189 7.351.162.405 3.54 8.54 3.621 8.7.108.324.27.459.405.459.27 0 .459-.351.568-.568s2.783-6.4 3.189-7.242c.324-.676 3.594-8.3 3.81-8.648h.108c.054.108.054 6.567.054 7.351zm-22.862-2.486c0-.324.054-6.026.054-6.3 0-.513.405-.7 1-.7h1a.209.209 0 0 0 .216-.189v-.622c0-.135-.054-.243-.216-.243-.351 0-1.189.081-3.7.081s-3.945-.108-4.243-.108c-.108 0-.162.054-.162.189v.676c0 .135.054.189.216.189h1.351c.73 0 1 .27 1.081.892.027.351.081 5.026.081 5.648v1.838c0 1.405-.054 7.026-.108 7.4-.108.7-.676.757-1.216.757h-1.027c-.162 0-.216.054-.216.162v.7c0 .135.054.189.216.189.27 0 1.405-.081 4.027-.081 2.432 0 3.486.081 3.783.081.162 0 .27-.054.27-.216v-.649a.185.185 0 0 0-.189-.189h-1.135c-.622 0-1.027-.108-1.027-.946 0-.3-.054-6.27-.054-6.54zm-20.268 2.27c.189-.595 2.54-7 2.621-7.351.081-.243.189-.351.351-.351s.162.162.27.486c.162.513 1.919 6.459 2.189 7.215zm5.7 1.027c.324.973 1.351 4.3 1.567 5.243.162.7-.054.973-.784.973h-.676c-.162 0-.216.054-.216.216v.513c0 .162.054.324.27.324.567 0 1.459-.081 3.621-.081 2.865 0 3.378.081 3.864.081.216 0 .27-.162.27-.324v-.513c0-.135-.054-.189-.216-.189h-.838a2 2 0 0 1-1.675-1.189c-.378-.7-2.027-5.54-2.648-7.567-.486-1.675-2.513-7.513-2.973-9.107-.054-.162-.162-.459-.324-.459s-.243.108-.378.27a8.35 8.35 0 0 1-2.594 1.3c-.216.054-.27.162-.27.27a.913.913 0 0 0 .162.324c.162.162 0 .622-.054.892-.27.676-2.378 6.3-2.54 6.837-.784 2.189-2.648 6.864-2.919 7.351a1.833 1.833 0 0 1-1.675 1.162h-.784c-.108 0-.162.054-.162.216v.513c0 .189 0 .351.162.351.378 0 .946-.081 2.865-.081 1.838 0 2.919.081 3.27.081.162 0 .216-.108.216-.27v-.7c0-.081-.054-.135-.27-.135h-1.081c-.513 0-.946-.3-.946-.622a1.663 1.663 0 0 1 .054-.513c.135-.7 1.405-4.432 1.621-5.026zm-12.3 1.648c-.162-.054-.216 0-.324.108-.351 1-2.027 4.108-3.486 4.324-1.027.108-2.919.108-4.378.108h-1.459c-.108-1.108-.108-6.729-.108-7.215V65.21c0-1.838.108-5.729.108-6.08 0-.7.108-.973.892-.973h1.405c.216 0 .27-.108.27-.216v-.622c0-.135-.054-.243-.27-.243s-1.3.081-4.108.081c-2.405 0-3.351-.081-3.594-.081-.162 0-.216.054-.216.216v.622a.237.237 0 0 0 .216.243h1.081c.676 0 .784.27.838.946.054.432.108 3.189.108 4.864v1.459c0 1.567-.108 8.08-.108 8.54 0 .351-.162.7-1.081.7h-1.027c-.162 0-.162.054-.162.216v.595c0 .189 0 .243.216.243.3 0 1.243-.081 3.594-.081 2.648 0 10.161.054 10.837.081.162-.7 1.189-5.026 1.3-5.189 0-.162 0-.216-.054-.27zm-17.7.892c-.081-.081-.189 0-.3.189a7.581 7.581 0 0 1-6.215 3.027 5.678 5.678 0 0 1-4.486-2.027 10.669 10.669 0 0 1-2.405-6.783c0-3.756 1.73-7.513 5.891-7.513a6.382 6.382 0 0 1 4.54 1.919 9.406 9.406 0 0 1 2.027 3.378c.081.216.162.324.3.27l.486-.162c.108-.027.135-.108.108-.27-.108-.757-.622-4.918-.622-5.432 0-.378-.054-.432-.378-.432s-.351 0-.405.162l-.216.7c-.054.216-.162.216-.513 0a11.13 11.13 0 0 0-5.27-1.243 9.051 9.051 0 0 0-6.783 2.756 10.341 10.341 0 0 0 .162 14 9.232 9.232 0 0 0 6.837 2.432 9.386 9.386 0 0 0 7.783-4.378.215.215 0 0 0-.054-.27z" transform="translate(-241.537 -23.644)"/>
        <path id="Path_65" data-name="Path 65" class="cls-2" d="M250.079 70.932c-.108 0-.135.054-.162.216-.054.324-.405 4.54-.486 4.837-.054.324.108.405.324.405s.3-.054.459-.324.27-.459.405-.459c.162 0 .324.108.622.324a6.777 6.777 0 0 0 4.432 1.243c3.432 0 5.513-2.594 5.513-5.783a4.987 4.987 0 0 0-1.3-3.729 8.3 8.3 0 0 0-3.756-2.027 8.915 8.915 0 0 1-3.189-1.621 3.194 3.194 0 0 1-.73-2.351 2.777 2.777 0 0 1 2.919-2.621 3.384 3.384 0 0 1 2.7 1.108 7.67 7.67 0 0 1 1.621 2.756.21.21 0 0 0 .243.162h.027l.405-.135a.179.179 0 0 0 .162-.189c0-.27-.405-3.918-.405-4.324 0-.27-.054-.405-.216-.405a.533.533 0 0 0-.378.162l-.351.351a.453.453 0 0 1-.54.081 8.573 8.573 0 0 0-3.27-.622 5.4 5.4 0 0 0-3.7 1.243 4.456 4.456 0 0 0-1.838 3.621 4.94 4.94 0 0 0 1.3 3.729 12.177 12.177 0 0 0 3.81 2.189c2.756 1.027 3.864 1.838 3.864 4.216a3.184 3.184 0 0 1-3.378 3.054 4.071 4.071 0 0 1-3.432-1.865 6.191 6.191 0 0 1-1-2.973c0-.162-.054-.216-.162-.216zM231.243 66.8c0 3.405.108 5.135.486 6.27a5.292 5.292 0 0 0 3.081 3.486 10.446 10.446 0 0 0 3.756.622 6.458 6.458 0 0 0 6.918-6.594c.108-1.027.162-5.567.162-5.945s0-3.973.054-4.3a1.026 1.026 0 0 1 1.027-1.027h1c.135 0 .162-.081.162-.243v-.595c0-.135-.027-.216-.27-.216s-1.027.081-2.648.081c-1.73 0-2.919-.081-3.189-.081-.162 0-.216.054-.216.216v.649c0 .108.054.189.216.189h.946a1.15 1.15 0 0 1 1.081 1.135c.189 1.648.27 3.324.3 4.972v4.729a6.047 6.047 0 0 1-1.513 4.4 5.45 5.45 0 0 1-3.486 1.243 4.316 4.316 0 0 1-3.513-1.621 6.156 6.156 0 0 1-.919-3.216c-.054-.838-.081-2.675-.081-3.973v-3.237c0-1.513.054-3.081.081-3.378a1.132 1.132 0 0 1 1.243-1.027h1.135c.162 0 .216-.054.216-.216V58.5c0-.135-.054-.189-.216-.189-.3 0-1.567.081-3.756.081-2.513 0-3.756-.081-4.027-.081s-.27.054-.27.216v.595c0 .189.054.243.216.243h1.189c.676 0 .892.405.892 1.3l-.054 6.134z" transform="translate(-147.476 -24.8)"/>
        <path id="Path_66" data-name="Path 66" class="cls-3" d="M41.852 72.172a20.174 20.174 0 0 0 25.592 29.4l-.135-.568a20.161 20.161 0 0 1-14.917-36.291l.189-.513a20.073 20.073 0 0 0-10.728 7.972" transform="translate(-8.377 -29.336)"/>
        <path id="Path_67" data-name="Path 67" class="cls-2" d="M66.032 110.585a19.183 19.183 0 0 0 35.59-11.4l.513-.081a19.16 19.16 0 0 1-35.805 13.643 18.941 18.941 0 0 1-.73-2.405z" transform="translate(-28.233 -54.805)"/>
        <path id="Path_68" data-name="Path 68" d="M94.748 73.686a13.049 13.049 0 0 0-24.943 4.783h-.378a13.034 13.034 0 1 1 25.213-6.621 15.824 15.824 0 0 1 .378 2.027z" transform="translate(-30.709 -27.823)" style="fill:#dee0e2"/>
        <path id="Path_69" data-name="Path 69" class="cls-3" d="m119.636 26.243-.216-.108h-.027l-.216-.108-.216-.108-.216-.108a18.7 18.7 0 0 0-4.81-1.621l-.459-.081-.216-.027-.243-.027-.216-.027h-4.594L108.1 24h-.7l-.162.027h-.54l-.162.216-.135.027h-.513l-.162.027h-.054l-.189.054h-.027l-.189.054h-.054l-.189.162-.216.054.027.54h.189a18.974 18.974 0 0 1 5.08.784l.216.054.216.081a19.5 19.5 0 0 1 12.647 24.538l-.162.486c-.054.162-.108.3-.162.459a19.714 19.714 0 0 1-9.675 10.62l-.27.432a19.515 19.515 0 0 0 14.674-10.269l.216-.432c.081-.135.135-.3.216-.432a3 3 0 0 0 .189-.432c.135-.3.243-.595.351-.865.054-.135.108-.27.162-.432v-.027c.054-.135.081-.27.135-.405v-.054l.135-.405c.027-.135.081-.27.108-.405V48.4c.027-.135.081-.27.108-.405v-.054l.081-.405v-.027l.081-.405v-.054l.081-.432a2.731 2.731 0 0 1 .081-.459 19.017 19.017 0 0 0 .216-2.783 19.443 19.443 0 0 0-1.892-8.7c-.081-.135-.135-.27-.216-.405l-.216-.405c-.081-.135-.135-.27-.216-.378v-.027l-.216-.378v-.054l-.243-.351-.027-.054-.243-.351-.027-.054-.243-.351-.027-.054-.27-.351-.108-.081-.27-.351-.027-.054c-.081-.108-.189-.216-.3-.351l-.027-.054-.3-.351-.027-.027-.3-.351v-.033l-.324-.351-.351-.351-.135-.081-.054-.054-.054-.054-.027-.027-.054-.054-.054-.054-.054-.054a19.777 19.777 0 0 0-3.594-2.567z" transform="translate(-56.84)"/>
        <path id="Path_70" data-name="Path 70" class="cls-2" d="M57.5 36.633a14.816 14.816 0 0 0-1.405-.838 19.684 19.684 0 0 0-27.1 26.051l.513-.135A19.692 19.692 0 0 1 64.85 46.875l.513.189A19.693 19.693 0 0 0 57.5 36.633" transform="translate(0 -6.822)"/>
        <path id="Path_71" data-name="Path 71" class="cls-1" d="M748.932 59.289c.351 0 .946.081.946-.378 0-.27-.378-.351-.676-.351h-.73v.7h.459zm1.27 1.675h-.459l-.811-1.27h-.459v1.27h-.378v-2.756h1.189c.513 0 .973.135.973.73s-.378.73-.865.757zm.919-1.351a2.121 2.121 0 1 0-2.135 2.108h.027a2.093 2.093 0 0 0 2.108-2.108zm-4.621 0a2.513 2.513 0 1 1 2.513 2.513 2.463 2.463 0 0 1-2.513-2.459v-.054z" transform="translate(-525.128 -24.155)"/>
        <path id="Path_72" data-name="Path 72" class="cls-5" d="M725.419 159.657c.27 0 .757.054.757-.3 0-.216-.3-.27-.54-.27h-.595v.568zm1.027 1.324h-.378l-.649-1.027h-.378v1.027h-.3v-2.189h.946c.405 0 .784.108.784.568s-.3.595-.676.595zm.73-1.081a1.7 1.7 0 1 0-1.7 1.7 1.731 1.731 0 0 0 1.7-1.7zm-3.675 0a2 2 0 1 1 2 2 1.972 1.972 0 0 1-2-1.973v-.027z" transform="translate(-508.343 -97.715)"/>
        <path id="Path_73" data-name="Path 73" class="cls-5" d="M242.919 157.6H242v5.864h2.675v-.864h-1.757z" transform="translate(-156.963 -97.496)"/>
        <path id="Rectangle_52" data-name="Rectangle 52" class="cls-5" transform="translate(88.604 60.104)" d="M0 0h.919v5.864H0z"/>
        <path id="Path_74" data-name="Path 74" class="cls-5" d="M262.3 158.438h1.351v5.026h.946v-5.026h1.351v-.838H262.3z" transform="translate(-171.777 -97.496)"/>
        <path id="Rectangle_53" data-name="Rectangle 53" class="cls-5" transform="translate(95.171 60.104)" d="M0 0h.919v5.864H0z"/>
        <path id="Path_75" data-name="Path 75" class="cls-5" d="M290.451 160.883h1.486a1.871 1.871 0 0 1-1.784 1.486 2.229 2.229 0 0 1-2.135-2.216 2.163 2.163 0 0 1 2.189-2.189 2.243 2.243 0 0 1 1.73.892l.081.081.649-.622-.054-.081a3.163 3.163 0 0 0-2.432-1.135 3.068 3.068 0 0 0-.081 6.134 2.762 2.762 0 0 0 2.838-2.865v-.324h-2.486v.838z" transform="translate(-189.876 -97.131)"/>
        <path id="Path_76" data-name="Path 76" class="cls-5" d="M310.5 162.443h1l.649-1.432h2.513l.649 1.432h1l-2.892-6.243zm2.892-4.216.865 1.946h-1.73z" transform="translate(-206.952 -96.474)"/>
        <path id="Path_77" data-name="Path 77" class="cls-5" d="M331 158.438h1.351v5.026h.919v-5.026h1.378v-.838H331z" transform="translate(-221.912 -97.496)"/>
        <path id="Rectangle_54" data-name="Rectangle 54" class="cls-5" transform="translate(113.709 60.104)" d="M0 0h.919v5.864H0z"/>
        <path id="Path_78" data-name="Path 78" class="cls-5" d="M358.808 157.1a3.054 3.054 0 1 0 3.108 3.054 3.08 3.08 0 0 0-3.108-3.054m0 5.243a2.18 2.18 0 0 1-2.189-2.189 2.189 2.189 0 1 1 4.378 0 2.18 2.18 0 0 1-2.189 2.189" transform="translate(-239.937 -97.131)"/>
        <path id="Path_79" data-name="Path 79" class="cls-5" d="M387.024 160.459 382.7 156v6.3h.919v-4.081l4.324 4.459v-6.243h-.919z" transform="translate(-259.641 -96.328)"/>
        <path id="Path_80" data-name="Path 80" class="cls-5" d="M418.1 163.464h.919v-2.783h2v-.865h-2v-1.378h2.054v-.838H418.1z" transform="translate(-285.474 -97.496)"/>
        <path id="Path_81" data-name="Path 81" class="cls-5" d="M437.013 160.959c0 1.135-.432 1.675-1.3 1.675s-1.3-.54-1.3-1.675V157.5h-.913v3.675a2.217 2.217 0 1 0 4.432 0V157.5h-.919z" transform="translate(-296.713 -97.423)"/>
        <path id="Path_82" data-name="Path 82" class="cls-5" d="M459.3 160.459 455 156v6.3h.919v-4.081l4.3 4.459v-6.243h-.919z" transform="translate(-312.402 -96.328)"/>
        <path id="Path_83" data-name="Path 83" class="cls-5" d="M480.8 157.6h-1.3v5.864h1.27c2.054 0 3.351-1.135 3.351-2.973 0-1.757-1.3-2.892-3.324-2.892m-.378.838h.135c1.189 0 2.621.351 2.621 2.081s-1.432 2.081-2.621 2.081h-.135z" transform="translate(-330.282 -97.496)"/>
        <path id="Rectangle_55" data-name="Rectangle 55" class="cls-5" transform="translate(155.002 60.104)" d="M0 0h.919v5.864H0z"/>
        <path id="Path_84" data-name="Path 84" class="cls-5" d="M514 160.459 509.7 156v6.3h.919v-4.081l4.3 4.459v-6.243H514z" transform="translate(-352.32 -96.328)"/>
        <path id="Path_85" data-name="Path 85" class="cls-5" d="M536.351 160.883h1.486a1.871 1.871 0 0 1-1.784 1.486 2.229 2.229 0 0 1-2.135-2.216 2.163 2.163 0 0 1 2.189-2.189 2.243 2.243 0 0 1 1.729.892l.081.081.649-.622-.054-.081a3.163 3.163 0 0 0-2.432-1.135 3.068 3.068 0 0 0-.081 6.134 2.74 2.74 0 0 0 2.811-2.865v-.324h-2.486l.027.838z" transform="translate(-369.324 -97.131)"/>
        <path id="Path_86" data-name="Path 86" class="cls-5" d="m570.8 159.532-.405-.162c-.486-.189-.73-.432-.73-.7a.81.81 0 0 1 .865-.7.884.884 0 0 1 .838.486l.054.081.757-.432-.054-.081a1.723 1.723 0 0 0-1.567-.919 1.652 1.652 0 0 0-1.784 1.567c0 .865.676 1.243 1.324 1.54l.405.162c.568.243.919.486.919.973a.97.97 0 0 1-.946 1 1.109 1.109 0 0 1-.757-.3.9.9 0 0 1-.27-.676v-.135l-.946.189v.108a1.892 1.892 0 0 0 1.865 1.675 1.871 1.871 0 0 0 1.946-1.865 1.974 1.974 0 0 0-1.513-1.811" transform="translate(-395.23 -97.131)"/>
        <path id="Rectangle_56" data-name="Rectangle 56" class="cls-5" transform="translate(178.269 60.104)" d="M0 0h.919v5.864H0z"/>
        <path id="Path_87" data-name="Path 87" class="cls-5" d="m597.57 160.34-2.027-4.54-1.243 6.351h.946l.622-3.54 1.7 3.81 1.675-3.81.649 3.54h.946l-1.27-6.351z" transform="translate(-414.058 -96.182)"/>
        <path id="Path_88" data-name="Path 88" class="cls-5" d="M623.419 157.5h-.919v5.864h.919v-2.378h.324c1.351 0 2.108-.649 2.108-1.757-.027-1.189-.784-1.73-2.432-1.73m1.54 1.73c0 .649-.432.946-1.432.946h-.135v-1.838h.081c1.054 0 1.486.27 1.486.892" transform="translate(-434.637 -97.423)"/>
        <path id="Path_89" data-name="Path 89" class="cls-5" d="M639.719 157.6h-.919v5.864h2.675v-.864h-1.757z" transform="translate(-446.532 -97.496)"/>
        <path id="Rectangle_57" data-name="Rectangle 57" class="cls-5" transform="translate(195.835 60.104)" d="M0 0h.919v5.864H0z"/>
        <path id="Path_90" data-name="Path 90" class="cls-5" d="M661 163.464h.946v-2.783h1.973v-.865h-1.973v-1.378H664v-.838h-3z" transform="translate(-462.733 -97.496)"/>
        <path id="Rectangle_58" data-name="Rectangle 58" class="cls-5" transform="translate(202.537 60.104)" d="M0 0h.919v5.864H0z"/>
        <path id="Path_91" data-name="Path 91" class="cls-5" d="M685.8 163.464h3.3v-.864h-2.351v-1.946h2.3v-.838h-2.3v-1.378h2.351v-.838h-3.3z" transform="translate(-480.831 -97.496)"/>
        <path id="Path_92" data-name="Path 92" class="cls-5" d="M704 157.6h-1.3v5.864h1.27c2.054 0 3.351-1.135 3.351-2.973 0-1.757-1.3-2.892-3.324-2.892m-.378.838h.135c1.189 0 2.621.351 2.621 2.081s-1.432 2.081-2.621 2.081h-.135z" transform="translate(-493.164 -97.496)"/>
    </g>
</svg>
